<mxfile host="65bd71144e">
    <diagram id="575B_9Xkg0RRVacfMX6L" name="Ajax工作流程">
        <mxGraphModel dx="528" dy="513" grid="0" gridSize="10" guides="1" tooltips="1" connect="1" arrows="0" fold="1" page="0" pageScale="1" pageWidth="827" pageHeight="1169" math="0" shadow="0">
            <root>
                <mxCell id="0"/>
                <mxCell id="1" parent="0"/>
                <mxCell id="8" style="edgeStyle=none;html=1;exitX=1;exitY=0.25;exitDx=0;exitDy=0;entryX=0.005;entryY=0.25;entryDx=0;entryDy=0;entryPerimeter=0;fontSize=19;fontColor=#FF0000;fillColor=#d80073;strokeColor=#A50040;strokeWidth=5;" parent="1" source="2" target="3" edge="1">
                    <mxGeometry relative="1" as="geometry"/>
                </mxCell>
                <mxCell id="2" value="浏览器" style="rounded=0;whiteSpace=wrap;html=1;labelBorderColor=none;" parent="1" vertex="1">
                    <mxGeometry x="20" y="40" width="220" height="320" as="geometry"/>
                </mxCell>
                <mxCell id="11" style="edgeStyle=none;html=1;exitX=0;exitY=0;exitDx=0;exitDy=232.5;exitPerimeter=0;entryX=1.009;entryY=0.731;entryDx=0;entryDy=0;entryPerimeter=0;fontSize=19;fontColor=#FF0000;strokeWidth=5;fillColor=#008a00;strokeColor=#005700;" parent="1" source="3" target="2" edge="1">
                    <mxGeometry relative="1" as="geometry"/>
                </mxCell>
                <mxCell id="3" value="服务器" style="shape=cylinder3;whiteSpace=wrap;html=1;boundedLbl=1;backgroundOutline=1;size=15;fillColor=none;" parent="1" vertex="1">
                    <mxGeometry x="390" y="40" width="190" height="320" as="geometry"/>
                </mxCell>
                <mxCell id="4" value="1.创建xhr对象" style="text;html=1;resizable=0;autosize=1;align=center;verticalAlign=middle;points=[];fillColor=none;strokeColor=none;rounded=0;fontColor=#FF0000;fontSize=19;" parent="1" vertex="1">
                    <mxGeometry x="50" y="95" width="130" height="30" as="geometry"/>
                </mxCell>
                <mxCell id="6" value="2.设置请求方式、请求地址" style="text;html=1;resizable=0;autosize=1;align=center;verticalAlign=middle;points=[];fillColor=none;strokeColor=none;rounded=0;fontSize=19;fontColor=#FF0000;" parent="1" vertex="1">
                    <mxGeometry x="10" y="140" width="240" height="30" as="geometry"/>
                </mxCell>
                <mxCell id="9" value="3.发送请求" style="text;html=1;align=center;verticalAlign=middle;resizable=0;points=[];autosize=1;strokeColor=none;fillColor=none;fontSize=19;fontColor=#FF0000;" parent="1" vertex="1">
                    <mxGeometry x="260" y="90" width="110" height="30" as="geometry"/>
                </mxCell>
                <mxCell id="10" value="服务器接收并处理请求" style="text;html=1;resizable=0;autosize=1;align=center;verticalAlign=middle;points=[];fillColor=none;strokeColor=none;rounded=0;labelBorderColor=default;fontSize=19;fontColor=#FF0000;" parent="1" vertex="1">
                    <mxGeometry x="380" y="150" width="210" height="30" as="geometry"/>
                </mxCell>
                <mxCell id="12" value="响应数据" style="text;html=1;align=center;verticalAlign=middle;resizable=0;points=[];autosize=1;strokeColor=#2D7600;fillColor=none;fontSize=19;fontColor=#00CC00;" parent="1" vertex="1">
                    <mxGeometry x="265" y="245" width="90" height="30" as="geometry"/>
                </mxCell>
                <mxCell id="13" value="&lt;font color=&quot;#ff0000&quot;&gt;4.执行回调函数，&lt;br&gt;对返回的数据进行处理&lt;br&gt;或者渲染&lt;/font&gt;" style="text;html=1;resizable=0;autosize=1;align=center;verticalAlign=middle;points=[];fillColor=none;strokeColor=none;rounded=0;labelBorderColor=none;fontSize=19;fontColor=#00CC00;" parent="1" vertex="1">
                    <mxGeometry x="25" y="245" width="210" height="70" as="geometry"/>
                </mxCell>
            </root>
        </mxGraphModel>
    </diagram>
</mxfile>